<svg width="56" height="56" viewBox="0 0 56 56" fill="none" xmlns="http://www.w3.org/2000/svg">
<path fill-rule="evenodd" clip-rule="evenodd" d="M19.3114 7L19.4444 7.00001L36.4664 7C38.343 6.99991 39.949 6.99983 41.2327 7.17243C42.6043 7.35682 43.9034 7.77059 44.9553 8.82245C46.0072 9.87432 46.4209 11.1735 46.6053 12.545C46.7779 13.8288 46.7778 15.4347 46.7777 17.3113V17.3113V17.3114V28.133V28.1331V28.1331C46.7778 30.0097 46.7779 31.6156 46.6053 32.8994C46.4209 34.2709 46.0072 35.5701 44.9553 36.622C43.9034 37.6738 42.6043 38.0876 41.2327 38.272C39.949 38.4446 38.343 38.4445 36.4664 38.4444L16.2778 38.4444C14.4675 38.4444 13 39.9119 13 41.7222C13 43.5324 14.4675 44.9999 16.2778 44.9999H25.7778V45L45.0796 45C46.1841 45 47.0796 45.8955 47.0796 47C47.0796 48.1046 46.1841 49 45.0796 49L17.4844 49L17.4696 48.9999H16.2778C12.2584 48.9999 9.00001 45.7416 9.00001 41.7222V17.4444L9 17.3114C8.99991 15.4348 8.99983 13.8288 9.17243 12.545C9.35683 11.1735 9.77059 9.87432 10.8225 8.82245C11.8743 7.77059 13.1735 7.35682 14.545 7.17243C15.8288 6.99983 17.4348 6.99991 19.3114 7ZM35.282 20.6193C35.8678 20.0335 35.8678 19.0837 35.282 18.4979C34.6962 17.9121 33.7465 17.9121 33.1607 18.4979L25.7769 25.8817L22.6153 22.7201C22.0296 22.1344 21.0798 22.1344 20.494 22.7201C19.9082 23.3059 19.9082 24.2557 20.494 24.8415L24.0091 28.3566C24.9854 29.3329 26.5684 29.3329 27.5447 28.3566L35.282 20.6193Z" fill="#D85FF1"/>
</svg>
