<svg width="60" height="60" viewBox="0 0 60 60" fill="none" xmlns="http://www.w3.org/2000/svg">
<path fill-rule="evenodd" clip-rule="evenodd" d="M31.1538 3.30762C24.059 3.30762 18.3076 9.05904 18.3076 16.1538C18.3076 23.2485 24.059 28.9999 31.1538 28.9999C38.2485 28.9999 43.9999 23.2485 43.9999 16.1538C43.9999 9.05904 38.2485 3.30762 31.1538 3.30762ZM16.3076 16.1538C16.3076 7.95447 22.9545 1.30762 31.1538 1.30762C39.3531 1.30762 45.9999 7.95447 45.9999 16.1538C45.9999 24.3531 39.3531 30.9999 31.1538 30.9999C22.9545 30.9999 16.3076 24.3531 16.3076 16.1538ZM6.61523 33.6154C4.95838 33.6154 3.61523 34.9585 3.61523 36.6154V54.5384C3.61523 56.1953 4.95838 57.5384 6.61523 57.5384H9.53831C10.9569 57.5384 12.1455 56.5538 12.458 55.2308H35.2874L35.303 55.2306L35.3125 55.2305L35.4917 55.2262C37.1097 55.1894 39.8825 55.1262 43.5289 52.6124L43.5413 52.6037L43.5535 52.5949L55.079 44.1247L55.0827 44.122C56.3274 43.2229 57.1813 41.9106 57.4493 40.4318C57.7171 38.9537 57.3746 37.4431 56.5052 36.2011C56.0902 35.583 55.5511 35.0515 54.922 34.6338C54.2898 34.214 53.5778 33.9165 52.8277 33.7553C52.0777 33.5942 51.3014 33.572 50.5426 33.6897C49.7838 33.8074 49.0545 34.0632 48.3967 34.4451C48.3847 34.452 48.3729 34.4592 48.3612 34.4667L40.9719 39.1782C39.8503 36.8337 37.4845 34.7692 34.6049 34.7692H19.5087C19.4935 34.7692 19.4782 34.7696 19.463 34.7703C17.6825 34.8517 15.9474 35.3239 14.4173 36.1507C13.7385 36.5176 13.1084 36.9498 12.5383 37.4389V36.6154C12.5383 34.9585 11.1952 33.6154 9.53831 33.6154H6.61523ZM12.5383 40.3825V53.2308H35.275L35.339 53.2292L35.455 53.2266C36.932 53.194 39.2295 53.1432 42.3814 50.9742L53.9018 42.5078L53.909 42.5025L53.9091 42.5026C54.7589 41.8897 55.3103 41.0192 55.4813 40.0752C55.6521 39.1329 55.4368 38.159 54.8623 37.3417L54.8489 37.3222C54.5845 36.9266 54.2346 36.5781 53.8157 36.3C53.3967 36.0217 52.9184 35.8204 52.4077 35.7107C51.897 35.601 51.3669 35.5858 50.8492 35.6661C50.3381 35.7454 49.852 35.9157 49.4179 36.1649L38.7083 42.9934L38.7072 42.9941C37.211 43.9527 35.4418 44.4616 33.6359 44.461H33.6355H25.1368C24.5845 44.461 24.1368 44.0133 24.1368 43.461C24.1368 42.9087 24.5845 42.461 25.1368 42.461H33.6359H33.6363C35.0698 42.4615 36.4631 42.0568 37.6292 41.3095L37.6311 41.3083L39.2696 40.2636C38.4477 38.3328 36.5927 36.7692 34.6049 36.7692H19.5321C18.0497 36.8403 16.6179 37.2349 15.3681 37.9103C14.2043 38.5392 13.239 39.3892 12.5383 40.3825ZM10.5383 54.2284V36.6154C10.5383 36.0631 10.0906 35.6154 9.53831 35.6154H6.61523C6.06295 35.6154 5.61523 36.0631 5.61523 36.6154V54.5384C5.61523 55.0907 6.06295 55.5384 6.61523 55.5384H9.53831C10.0906 55.5384 10.5383 55.0907 10.5383 54.5384V54.2332L10.5383 54.2308L10.5383 54.2284ZM24.8599 15.4971C24.3076 15.4971 23.8599 15.9448 23.8599 16.4971C23.8599 17.0494 24.3076 17.4971 24.8599 17.4971H26.3412L27.3852 20.2811C27.5316 20.6714 27.9047 20.9299 28.3216 20.9299C28.7384 20.9299 29.1115 20.6714 29.2579 20.2811L31.1538 15.2255L33.0497 20.2811C33.196 20.6714 33.5691 20.9299 33.986 20.9299C34.4028 20.9299 34.776 20.6714 34.9223 20.2811L35.9663 17.4971H37.447C37.9993 17.4971 38.447 17.0494 38.447 16.4971C38.447 15.9448 37.9993 15.4971 37.447 15.4971H36.7163L37.7545 12.7286C37.9484 12.2115 37.6864 11.6351 37.1693 11.4412C36.6522 11.2472 36.0758 11.5092 35.8819 12.0264L33.986 17.082L32.0901 12.0264C31.9437 11.6361 31.5706 11.3775 31.1538 11.3775C30.7369 11.3775 30.3638 11.6361 30.2175 12.0264L28.3216 17.082L26.4257 12.0264C26.2318 11.5092 25.6554 11.2472 25.1382 11.4412C24.6211 11.6351 24.3591 12.2115 24.553 12.7286L25.5912 15.4971H24.8599Z" fill="white"/>
</svg>
