<svg width="32" height="32" viewBox="0 0 32 32" fill="none" xmlns="http://www.w3.org/2000/svg">
<path d="M15.9989 22.2451V26.9098M8.99886 27.9983H22.9989M6.57029 22.2451H25.4274C27.1632 22.2451 28.5703 20.8528 28.5703 19.1353V8.25093C28.5703 6.53343 27.1632 5.14111 25.4274 5.14111H6.57029C4.83453 5.14111 3.42743 6.53343 3.42743 8.25093V19.1353C3.42743 20.8528 4.83453 22.2451 6.57029 22.2451Z" stroke="#666666" stroke-width="2" stroke-linecap="round" stroke-linejoin="round"/>
<path d="M18.4788 13.3077C18.9808 13.5978 18.9826 13.9627 18.4788 14.2907L14.5861 17.0133C14.0969 17.284 13.7647 17.1241 13.7299 16.5384L13.7133 10.8401C13.7023 10.3005 14.1309 10.1481 14.5393 10.4068L18.4788 13.3077Z" stroke="#666666" stroke-width="2"/>
</svg>
