<svg width="16" height="16" viewBox="0 0 16 16" fill="none" xmlns="http://www.w3.org/2000/svg">
<path d="M11.1998 14.6673V13.9173V14.6673ZM4.79984 14.6673L4.79984 15.4173H4.79984V14.6673ZM2.6665 12.534H1.9165H2.6665ZM2.6665 3.46732L3.4165 3.46732L2.6665 3.46732ZM2.81183 2.062L2.14357 1.7215L2.14357 1.7215L2.81183 2.062ZM4.79984 1.33398V2.08398V1.33398ZM3.39452 1.47931L3.05402 0.811054L3.05402 0.811055L3.39452 1.47931ZM3.39452 14.522L3.05402 15.1902H3.05402L3.39452 14.522ZM2.81183 13.9393L3.48008 13.5988L3.48008 13.5988L2.81183 13.9393ZM12.6052 14.522L12.2647 13.8537L12.6052 14.522ZM13.3332 12.534H14.0832H13.3332ZM13.1878 13.9393L12.5196 13.5988L13.1878 13.9393ZM14.0832 5.33398C14.0832 4.91977 13.7474 4.58398 13.3332 4.58398C12.919 4.58398 12.5832 4.91977 12.5832 5.33398H14.0832ZM9.33317 2.08398C9.74739 2.08398 10.0832 1.7482 10.0832 1.33398C10.0832 0.919771 9.74739 0.583985 9.33317 0.583985L9.33317 2.08398ZM13.2194 5.22018L13.7497 4.68985V4.68985L13.2194 5.22018ZM9.44698 1.44779L8.91665 1.97812V1.97812L9.44698 1.44779ZM13.1722 5.33399V6.08399V5.33399ZM9.99984 5.33398V4.58399V5.33398ZM9.33317 4.66732L10.0832 4.66732V4.66732H9.33317ZM9.33317 1.49493L8.58317 1.49493V1.49493H9.33317ZM5.33317 7.25065C4.91896 7.25065 4.58317 7.58644 4.58317 8.00065C4.58317 8.41487 4.91896 8.75065 5.33317 8.75065V7.25065ZM10.6665 8.75065C11.0807 8.75065 11.4165 8.41487 11.4165 8.00065C11.4165 7.58644 11.0807 7.25065 10.6665 7.25065V8.75065ZM5.33317 4.58398C4.91896 4.58398 4.58317 4.91977 4.58317 5.33398C4.58317 5.7482 4.91896 6.08398 5.33317 6.08398V4.58398ZM6.6665 6.08398C7.08072 6.08398 7.4165 5.7482 7.4165 5.33398C7.4165 4.91977 7.08072 4.58398 6.6665 4.58398V6.08398ZM5.33317 9.91732C4.91896 9.91732 4.58317 10.2531 4.58317 10.6673C4.58317 11.0815 4.91896 11.4173 5.33317 11.4173V9.91732ZM10.6665 11.4173C11.0807 11.4173 11.4165 11.0815 11.4165 10.6673C11.4165 10.2531 11.0807 9.91732 10.6665 9.91732V11.4173ZM11.1998 13.9173H4.79984V15.4173H11.1998V13.9173ZM3.4165 12.534L3.4165 3.46732L1.9165 3.46732L1.9165 12.534H3.4165ZM3.4165 3.46732C3.4165 3.08157 3.41709 2.83737 3.43218 2.65266C3.44656 2.47671 3.47027 2.42175 3.48008 2.40249L2.14357 1.7215C2.00806 1.98746 1.95912 2.2618 1.93716 2.53051C1.91592 2.79047 1.9165 3.10632 1.9165 3.46732L3.4165 3.46732ZM4.79984 0.583984C4.43885 0.583984 4.12299 0.583401 3.86303 0.604641C3.59432 0.626596 3.31998 0.675541 3.05402 0.811054L3.73501 2.14756C3.75427 2.13775 3.80923 2.11404 3.98518 2.09966C4.16989 2.08457 4.41409 2.08398 4.79984 2.08398L4.79984 0.583984ZM3.48008 2.40249C3.53601 2.29273 3.62525 2.20349 3.73501 2.14756L3.05402 0.811055C2.66202 1.01079 2.34331 1.3295 2.14357 1.7215L3.48008 2.40249ZM4.79984 13.9173C4.41409 13.9173 4.16989 13.9167 3.98518 13.9016C3.80922 13.8873 3.75427 13.8635 3.73501 13.8537L3.05402 15.1902C3.31998 15.3258 3.59432 15.3747 3.86303 15.3967C4.12299 15.4179 4.43884 15.4173 4.79984 15.4173L4.79984 13.9173ZM1.9165 12.534C1.9165 12.895 1.91592 13.2108 1.93716 13.4708C1.95912 13.7395 2.00806 14.0138 2.14357 14.2798L3.48008 13.5988C3.47027 13.5796 3.44655 13.5246 3.43218 13.3486C3.41709 13.1639 3.4165 12.9197 3.4165 12.534H1.9165ZM3.73501 13.8537C3.62525 13.7978 3.53601 13.7086 3.48008 13.5988L2.14357 14.2798C2.34331 14.6718 2.66202 14.9905 3.05402 15.1902L3.73501 13.8537ZM11.1998 15.4173C11.5608 15.4173 11.8767 15.4179 12.1366 15.3967C12.4054 15.3747 12.6797 15.3258 12.9457 15.1902L12.2647 13.8537C12.2454 13.8636 12.1905 13.8873 12.0145 13.9016C11.8298 13.9167 11.5856 13.9173 11.1998 13.9173V15.4173ZM12.5832 12.534C12.5832 12.9197 12.5826 13.1639 12.5675 13.3486C12.5531 13.5246 12.5294 13.5796 12.5196 13.5988L13.8561 14.2798C13.9916 14.0138 14.0406 13.7395 14.0625 13.4708C14.0838 13.2108 14.0832 12.895 14.0832 12.534H12.5832ZM12.9457 15.1902C13.3377 14.9905 13.6564 14.6718 13.8561 14.2798L12.5196 13.5988C12.4637 13.7086 12.3744 13.7978 12.2647 13.8537L12.9457 15.1902ZM12.5832 5.33398V12.534H14.0832V5.33398H12.5832ZM4.79984 2.08398L9.33317 2.08398L9.33317 0.583985L4.79984 0.583984L4.79984 2.08398ZM13.7497 4.68985L9.97731 0.917462L8.91665 1.97812L12.689 5.75051L13.7497 4.68985ZM13.1722 4.58399L9.99984 4.58399V6.08398L13.1722 6.08399V4.58399ZM10.0832 4.66732V1.49493H8.58317V4.66732H10.0832ZM9.99984 4.58399C10.0459 4.58399 10.0832 4.62129 10.0832 4.66732L8.58317 4.66732C8.58317 5.44972 9.21743 6.08398 9.99984 6.08398V4.58399ZM9.97731 0.917462C9.46284 0.402991 8.58317 0.767361 8.58317 1.49493L10.0832 1.49493C10.0832 2.10372 9.34712 2.4086 8.91665 1.97812L9.97731 0.917462ZM12.689 5.75051C12.2586 5.32003 12.5634 4.58399 13.1722 4.58399V6.08399C13.8998 6.08399 14.2642 5.20433 13.7497 4.68985L12.689 5.75051ZM5.33317 8.75065H10.6665V7.25065H5.33317V8.75065ZM5.33317 6.08398H6.6665V4.58398H5.33317V6.08398ZM5.33317 11.4173H10.6665V9.91732H5.33317V11.4173Z" fill="#AAAAAA"/>
</svg>
