<svg width="32" height="32" viewBox="0 0 32 32" fill="none" xmlns="http://www.w3.org/2000/svg">
<path fill-rule="evenodd" clip-rule="evenodd" d="M15.0003 8.83728C12.1749 6.89621 8.25304 6.01227 5.3261 5.68153C3.86222 5.51612 2.66699 6.73854 2.66699 8.24674V23.2664C2.66699 24.7746 3.86222 25.9975 5.3261 26.1629C8.25304 26.4937 12.1749 27.3776 15.0003 29.3187V8.83728ZM17.0003 29.3187C19.8257 27.3776 23.7476 26.4937 26.6746 26.1629C28.1384 25.9975 29.3337 24.7746 29.3337 23.2664V8.24674C29.3337 6.73854 28.1384 5.51612 26.6746 5.68153C23.7476 6.01227 19.8257 6.89621 17.0003 8.83728V29.3187ZM5.67875 12.5198C5.76328 11.974 6.27424 11.6001 6.82002 11.6846C8.55705 11.9536 10.5132 12.4033 12.361 13.1178C12.8761 13.317 13.1322 13.896 12.933 14.4112C12.7338 14.9263 12.1547 15.1824 11.6396 14.9832C9.96144 14.3342 8.1523 13.9148 6.51393 13.6611C5.96815 13.5765 5.59423 13.0656 5.67875 12.5198ZM6.82002 17.0179C6.27424 16.9334 5.76328 17.3073 5.67875 17.8531C5.59423 18.3989 5.96815 18.9099 6.51393 18.9944C7.33959 19.1223 8.21115 19.2926 9.08901 19.5141C9.62451 19.6492 10.1681 19.3246 10.3033 18.7891C10.4384 18.2536 10.1138 17.7099 9.57827 17.5748C8.63293 17.3363 7.69966 17.1542 6.82002 17.0179Z" fill="#4E60FF"/>
</svg>
