<svg width="18" height="19" viewBox="0 0 18 19" fill="none" xmlns="http://www.w3.org/2000/svg">
<path d="M10.9853 6.65V5.075C10.9853 4.65728 10.818 4.25668 10.5201 3.96131C10.2223 3.66594 9.81828 3.5 9.39706 3.5H3.83824C3.41701 3.5 3.01304 3.66594 2.71518 3.96131C2.41733 4.25668 2.25 4.65728 2.25 5.075V14.525C2.25 14.9427 2.41733 15.3433 2.71518 15.6387C3.01304 15.9341 3.41701 16.1 3.83824 16.1H9.39706C9.81828 16.1 10.2223 15.9341 10.5201 15.6387C10.818 15.3433 10.9853 14.9427 10.9853 14.525V12.95M6.22059 9.8H15.75M15.75 9.8L13.3676 7.4375M15.75 9.8L13.3676 12.1625" stroke="#222222" stroke-width="1.5" stroke-linecap="round" stroke-linejoin="round"/>
</svg>
