<svg width="52" height="52" viewBox="0 0 52 52" fill="none" xmlns="http://www.w3.org/2000/svg">
<path d="M11.5 36.5L3 33.8087L3.00045 9.57568C3.00046 8.90134 3.65428 8.42032 4.29806 8.62102L6.16779 9.20389C11.3169 10.8091 16.8838 10.8091 22.0329 9.20389C27.6615 7.44922 33.773 7.61718 39.2817 9.67793L40 9.94664V17M18 36V27M44 36V27M12 42.8087L12.0004 18.5757C12.0005 17.9013 12.6543 17.4203 13.2981 17.621L15.1678 18.2039C20.3169 19.8091 25.8838 19.8091 31.0329 18.2039C36.6615 16.4492 42.773 16.6172 48.2817 18.6779L49 18.9466L48.9995 43.7719C48.9995 44.1432 48.6289 44.4002 48.2812 44.2702C42.7725 42.2094 36.661 42.0414 31.0324 43.7961C25.8833 45.4013 20.3164 45.4013 15.1673 43.7961L12 42.8087ZM35.1247 30.9806C35.1247 33.5543 33.054 35.6408 30.4998 35.6408C27.9455 35.6408 25.8748 33.5543 25.8748 30.9806C25.8748 28.4068 27.9455 26.3204 30.4998 26.3204C33.054 26.3204 35.1247 28.4068 35.1247 30.9806Z" stroke="white" stroke-width="2" stroke-linecap="round" stroke-linejoin="round"/>
</svg>
