<svg width="24" height="24" viewBox="0 0 24 24" fill="none" xmlns="http://www.w3.org/2000/svg">
<path fill-rule="evenodd" clip-rule="evenodd" d="M18 2H8V22H18C19.6569 22 21 20.6569 21 19V5C21 3.34315 19.6569 2 18 2ZM11 5.5C10.4477 5.5 10 5.94772 10 6.5C10 7.05228 10.4477 7.5 11 7.5H17.3144C17.8667 7.5 18.3144 7.05228 18.3144 6.5C18.3144 5.94772 17.8667 5.5 17.3144 5.5H11ZM11 9.61428C10.4477 9.61428 10 10.062 10 10.6143C10 11.1666 10.4477 11.6143 11 11.6143H15.8C16.3523 11.6143 16.8 11.1666 16.8 10.6143C16.8 10.062 16.3523 9.61428 15.8 9.61428H11Z" fill="#4EB1E7"/>
<path d="M6 2C4.34315 2 3 3.34315 3 5V19C3 20.6569 4.34315 22 6 22V2Z" fill="#4EB1E7"/>
</svg>
