<svg width="24" height="24" viewBox="0 0 24 24" fill="none" xmlns="http://www.w3.org/2000/svg">
<path fill-rule="evenodd" clip-rule="evenodd" d="M4 5C4 3.34315 5.34315 2 7 2H14.8593H14.8608L14.8789 2.01743L20.998 7.45455V9.09016C20.999 9.12183 20.9995 9.15357 20.9995 9.18535V19C20.9995 20.6569 19.6563 22 17.9995 22H7C5.34315 22 4 20.6569 4 19V5ZM12.4999 10.5684C12.9141 10.5684 13.2499 10.9041 13.2499 11.3184V18.1365C13.2499 18.5508 12.9141 18.8865 12.4999 18.8865C12.0857 18.8865 11.7499 18.5508 11.7499 18.1365V11.3184C11.7499 10.9041 12.0857 10.5684 12.4999 10.5684ZM16.2775 12.8411C16.6918 12.8411 17.0275 13.1769 17.0275 13.5911V18.1365C17.0275 18.5508 16.6918 18.8865 16.2775 18.8865C15.8633 18.8865 15.5275 18.5508 15.5275 18.1365V13.5911C15.5275 13.1769 15.8633 12.8411 16.2775 12.8411ZM8.72222 14.6593C9.13644 14.6593 9.47222 14.9951 9.47222 15.4093V18.1365C9.47222 18.5508 9.13644 18.8865 8.72222 18.8865C8.30801 18.8865 7.97222 18.5508 7.97222 18.1365V15.4093C7.97222 14.9951 8.30801 14.6593 8.72222 14.6593ZM14.8602 2H13.4436V7.81818C13.4436 8.14292 13.5984 8.4315 13.8382 8.61418C14.0063 8.74229 14.2162 8.81836 14.4438 8.81836L20.9991 8.81836V7.45472H14.8602V2Z" fill="#A464FE"/>
</svg>
