<svg width="24" height="25" viewBox="0 0 24 25" fill="none" xmlns="http://www.w3.org/2000/svg">
<path d="M20 7.91943V7.71943C20 6.03928 20 5.1992 19.673 4.55746C19.3854 3.99298 18.9265 3.53403 18.362 3.24641C17.7202 2.91943 16.8802 2.91943 15.2 2.91943H8.8C7.11984 2.91943 6.27976 2.91943 5.63803 3.24641C5.07354 3.53403 4.6146 3.99298 4.32698 4.55746C4 5.1992 4 6.03928 4 7.71943V18.1194C4 19.7996 4 20.6397 4.32698 21.2814C4.6146 21.8459 5.07354 22.3048 5.63803 22.5925C6.27976 22.9194 7.11984 22.9194 8.8 22.9194H12.5M12.5 11.9194H8M11.5 15.9194H8M16 7.91943H8M18 18.9194V13.4194C18 12.591 18.6716 11.9194 19.5 11.9194C20.3284 11.9194 21 12.591 21 13.4194V18.9194C21 20.5763 19.6569 21.9194 18 21.9194C16.3431 21.9194 15 20.5763 15 18.9194V14.9194" stroke="#555555" stroke-width="1.5" stroke-linecap="round" stroke-linejoin="round"/>
</svg>
