<svg width="32" height="32" viewBox="0 0 32 32" fill="none" xmlns="http://www.w3.org/2000/svg">
<path d="M15.9989 22.2452V26.9099M8.99892 27.9983H22.9989M6.57035 22.2452H25.4275C27.1632 22.2452 28.5703 20.8528 28.5703 19.1353V8.25099C28.5703 6.53349 27.1632 5.14117 25.4275 5.14117H6.57035C4.8346 5.14117 3.42749 6.53349 3.42749 8.25099V19.1353C3.42749 20.8528 4.8346 22.2452 6.57035 22.2452Z" stroke="white" stroke-width="2" stroke-linecap="round" stroke-linejoin="round"/>
<path d="M18.4788 13.3078C18.9808 13.5979 18.9826 13.9628 18.4788 14.2908L14.5861 17.0134C14.0969 17.2841 13.7647 17.1243 13.7299 16.5385L13.7133 10.8402C13.7023 10.3006 14.1309 10.1482 14.5393 10.4069L18.4788 13.3078Z" stroke="white" stroke-width="2"/>
</svg>
