<svg width="20" height="20" viewBox="0 0 20 20" fill="none" xmlns="http://www.w3.org/2000/svg">
<path d="M3.75398 12.772C2.23011 11.2381 2.23011 8.76185 3.75398 7.22802V7.22802C3.97364 7.00692 4.25402 6.85605 4.55955 6.79455L6.12887 6.47863C6.23959 6.45634 6.3412 6.40167 6.4208 6.32155L7.29547 5.44116C8.74959 3.97754 9.47664 3.24573 10.0955 3.50088C10.7143 3.75602 10.7143 4.7876 10.7143 6.85076L10.7143 13.1492C10.7143 15.2124 10.7143 16.244 10.0955 16.4991C9.47664 16.7543 8.74959 16.0225 7.29547 14.5588L6.4208 13.6785C6.3412 13.5983 6.23959 13.5437 6.12887 13.5214L4.55955 13.2055C4.25402 13.1439 3.97364 12.9931 3.75398 12.772V12.772Z" stroke="#4E60FF" stroke-width="1.5"/>
<path d="M13.5762 6.60189C14.3314 7.38745 14.7575 8.45165 14.7617 9.56259C14.7659 10.6735 14.3479 11.7412 13.5987 12.5329" stroke="#4E60FF" stroke-width="1.5" stroke-linecap="round"/>
<path d="M16.1029 4.81546C17.3112 6.07236 17.993 7.77507 17.9997 9.55259C18.0064 11.3301 17.3376 13.0384 16.1388 14.3051" stroke="#4E60FF" stroke-width="1.5" stroke-linecap="round"/>
</svg>
