<svg width="32" height="32" viewBox="0 0 32 32" fill="none" xmlns="http://www.w3.org/2000/svg">
<path d="M26 27H6.95556C6.27105 27 5.92879 27 5.66734 26.8668C5.43737 26.7496 5.25039 26.5626 5.13321 26.3327C5 26.0712 5 25.729 5 25.0444V6M25.3889 8.5L19.3828 16.5C19.1408 16.742 19.0198 16.863 18.8802 16.9084C18.7575 16.9482 18.6253 16.9482 18.5025 16.9084C18.363 16.863 18.242 16.742 18 16.5L15.5 13.5C15.258 13.258 15.137 13.137 14.9975 13.0916C14.8747 13.0518 14.7425 13.0518 14.6198 13.0916C14.4802 13.137 14.3592 13.258 14.1172 13.5L9 19M25.3889 8.5H20.5M25.3889 8.5V14" stroke="white" stroke-width="2" stroke-linecap="round" stroke-linejoin="round"/>
</svg>
