<svg width="24" height="24" viewBox="0 0 24 24" fill="none" xmlns="http://www.w3.org/2000/svg">
<path d="M3.77148 5.14286C3.77148 3.62802 4.9995 2.4 6.51434 2.4H18.8572C20.372 2.4 21.6001 3.62802 21.6001 5.14286V18.8571C21.6001 20.372 20.372 21.6 18.8572 21.6H6.51434C4.9995 21.6 3.77148 20.372 3.77148 18.8571V5.14286Z" fill="#4EB1E7"/>
<path d="M8.57148 2.4V21.6M17.4858 10.6286H12.6858M17.4858 6.51429H12.6858M6.51434 21.6H18.8572C20.372 21.6 21.6001 20.372 21.6001 18.8571V5.14286C21.6001 3.62802 20.372 2.4 18.8572 2.4H6.51434C4.9995 2.4 3.77148 3.62802 3.77148 5.14286V18.8571C3.77148 20.372 4.9995 21.6 6.51434 21.6Z" stroke="#4EB1E7" stroke-linecap="round"/>
<mask id="mask0_817_1447" style="mask-type:alpha" maskUnits="userSpaceOnUse" x="3" y="1" width="20" height="22">
<path d="M3.77148 5.14286C3.77148 3.62802 4.9995 2.4 6.51434 2.4H18.8572C20.372 2.4 21.6001 3.62802 21.6001 5.14286V18.8571C21.6001 20.372 20.372 21.6 18.8572 21.6H6.51434C4.9995 21.6 3.77148 20.372 3.77148 18.8571V5.14286Z" fill="#4EB1E7"/>
<path d="M8.57148 2.4V21.6M17.4858 10.6286H12.6858M17.4858 6.51429H12.6858M6.51434 21.6H18.8572C20.372 21.6 21.6001 20.372 21.6001 18.8571V5.14286C21.6001 3.62802 20.372 2.4 18.8572 2.4H6.51434C4.9995 2.4 3.77148 3.62802 3.77148 5.14286V18.8571C3.77148 20.372 4.9995 21.6 6.51434 21.6Z" stroke="#4EB1E7" stroke-linecap="round"/>
</mask>
<g mask="url(#mask0_817_1447)">
<path d="M8.57129 2.5V1.5H6.57129V2.5H8.57129ZM6.57129 22V23H8.57129V22H6.57129ZM16.4856 11.6287C17.0379 11.6287 17.4856 11.1809 17.4856 10.6287C17.4856 10.0764 17.0379 9.62866 16.4856 9.62866V11.6287ZM11.6856 9.62866C11.1333 9.62866 10.6856 10.0764 10.6856 10.6287C10.6856 11.1809 11.1333 11.6287 11.6856 11.6287V9.62866ZM18 7.51437C18.5523 7.51437 19 7.06666 19 6.51437C19 5.96209 18.5523 5.51437 18 5.51437V7.51437ZM11.6856 5.51437C11.1333 5.51437 10.6856 5.96209 10.6856 6.51437C10.6856 7.06666 11.1333 7.51437 11.6856 7.51437V5.51437ZM6.57129 2.5V22H8.57129V2.5H6.57129ZM16.4856 9.62866H11.6856V11.6287H16.4856V9.62866ZM18 5.51437H11.6856V7.51437H18V5.51437Z" fill="white"/>
</g>
</svg>
