<svg width="16" height="16" viewBox="0 0 16 16" fill="none" xmlns="http://www.w3.org/2000/svg">
<path d="M14 6.7H2M10.6667 1.5V4.1M5.33333 1.5V4.1M5.2 14.5H10.8C11.9201 14.5 12.4802 14.5 12.908 14.2875C13.2843 14.1005 13.5903 13.8022 13.782 13.4353C14 13.0182 14 12.4721 14 11.38V5.92C14 4.8279 14 4.28185 13.782 3.86472C13.5903 3.4978 13.2843 3.19949 12.908 3.01254C12.4802 2.8 11.9201 2.8 10.8 2.8H5.2C4.0799 2.8 3.51984 2.8 3.09202 3.01254C2.71569 3.19949 2.40973 3.4978 2.21799 3.86472C2 4.28185 2 4.8279 2 5.92V11.38C2 12.4721 2 13.0182 2.21799 13.4353C2.40973 13.8022 2.71569 14.1005 3.09202 14.2875C3.51984 14.5 4.0799 14.5 5.2 14.5Z" stroke="#666666" stroke-width="1.5" stroke-linecap="round" stroke-linejoin="round"/>
</svg>
