<svg width="32" height="32" viewBox="0 0 32 32" fill="none" xmlns="http://www.w3.org/2000/svg">
<path d="M8.32275 4.57269L4.57275 8.38222M27.4299 8.38222L23.6799 4.57269M8.50133 24.8902L6.00133 27.4298M23.5013 24.8902L26.0013 27.4298M12.2513 17.906L14.7513 20.4457L20.3763 14.7314M16.0013 27.4298C18.6535 27.4298 21.197 26.3595 23.0724 24.4544C24.9478 22.5493 26.0013 19.9654 26.0013 17.2711C26.0013 14.5768 24.9478 11.9929 23.0724 10.0878C21.197 8.18267 18.6535 7.11238 16.0013 7.11238C13.3492 7.11238 10.8056 8.18267 8.93026 10.0878C7.05489 11.9929 6.00133 14.5768 6.00133 17.2711C6.00133 19.9654 7.05489 22.5493 8.93026 24.4544C10.8056 26.3595 13.3492 27.4298 16.0013 27.4298Z" stroke="white" stroke-width="2" stroke-linecap="round" stroke-linejoin="round"/>
</svg>
