<svg width="28" height="29" viewBox="0 0 28 29" fill="none" xmlns="http://www.w3.org/2000/svg">
<path d="M15.9633 12.2609L16.8043 12.802L15.9633 12.2609ZM10.6663 11C10.6663 11.5523 11.1141 12 11.6663 12C12.2186 12 12.6663 11.5523 12.6663 11H10.6663ZM12.9997 16.25C12.9997 16.8023 13.4474 17.25 13.9997 17.25C14.552 17.25 14.9997 16.8023 14.9997 16.25H12.9997ZM14.9997 19.1667C14.9997 18.6144 14.552 18.1667 13.9997 18.1667C13.4474 18.1667 12.9997 18.6144 12.9997 19.1667H14.9997ZM12.9997 20.3333C12.9997 20.8856 13.4474 21.3333 13.9997 21.3333C14.552 21.3333 14.9997 20.8856 14.9997 20.3333H12.9997ZM24.6663 14.5C24.6663 20.391 19.8907 25.1667 13.9997 25.1667V27.1667C20.9953 27.1667 26.6663 21.4956 26.6663 14.5H24.6663ZM13.9997 25.1667C8.10864 25.1667 3.33301 20.391 3.33301 14.5H1.33301C1.33301 21.4956 7.00407 27.1667 13.9997 27.1667V25.1667ZM3.33301 14.5C3.33301 8.60896 8.10864 3.83333 13.9997 3.83333V1.83333C7.00407 1.83333 1.33301 7.50439 1.33301 14.5H3.33301ZM13.9997 3.83333C19.8907 3.83333 24.6663 8.60896 24.6663 14.5H26.6663C26.6663 7.50439 20.9953 1.83333 13.9997 1.83333V3.83333ZM15.333 11C15.333 11.2669 15.2556 11.5127 15.1224 11.7198L16.8043 12.802C17.1389 12.2819 17.333 11.6621 17.333 11H15.333ZM12.6663 11C12.6663 10.2636 13.2633 9.66666 13.9997 9.66666V7.66666C12.1587 7.66666 10.6663 9.15905 10.6663 11H12.6663ZM13.9997 9.66666C14.7361 9.66666 15.333 10.2636 15.333 11H17.333C17.333 9.15905 15.8406 7.66666 13.9997 7.66666V9.66666ZM12.9997 15.6667V16.25H14.9997V15.6667H12.9997ZM15.1224 11.7198C14.9794 11.942 14.7992 12.1737 14.5832 12.4421C14.3777 12.6975 14.1318 12.9957 13.9114 13.2986C13.4777 13.8947 12.9997 14.693 12.9997 15.6667H14.9997C14.9997 15.3516 15.1548 14.989 15.5286 14.4753C15.712 14.2233 15.9133 13.9794 16.1414 13.6959C16.359 13.4255 16.5986 13.1217 16.8043 12.802L15.1224 11.7198ZM12.9997 19.1667V20.3333H14.9997V19.1667H12.9997Z" fill="#CCCCCC"/>
</svg>
