<svg width="24" height="24" viewBox="0 0 24 24" fill="none" xmlns="http://www.w3.org/2000/svg">
<path d="M18.343 1.71436L22.2858 5.65721M2.57153 21.4286L3.8297 16.8154C3.91178 16.5144 3.95283 16.3639 4.01583 16.2236C4.07178 16.099 4.14052 15.9805 4.22094 15.8701C4.31153 15.7458 4.42183 15.6355 4.64242 15.4149L14.8282 5.2291C15.0234 5.03392 15.121 4.93633 15.2335 4.89977C15.3325 4.86761 15.4391 4.86761 15.5381 4.89977C15.6507 4.93633 15.7482 5.03392 15.9434 5.2291L18.7711 8.05675C18.9663 8.25193 19.0638 8.34952 19.1004 8.46205C19.1326 8.56104 19.1326 8.66767 19.1004 8.76666C19.0638 8.87919 18.9663 8.97678 18.7711 9.17196L8.58528 19.3577C8.36469 19.5783 8.25439 19.6886 8.13006 19.7792C8.01967 19.8597 7.90121 19.9284 7.77661 19.9843C7.63628 20.0473 7.48579 20.0884 7.18481 20.1705L2.57153 21.4286Z" stroke="#AAAAAA" stroke-width="1.5" stroke-linecap="round" stroke-linejoin="round"/>
</svg>
