<svg width="24" height="24" viewBox="0 0 24 24" fill="none" xmlns="http://www.w3.org/2000/svg">
<path d="M3.77148 5.14286C3.77148 3.62802 4.9995 2.4 6.51434 2.4H18.8572C20.372 2.4 21.6001 3.62802 21.6001 5.14286V18.8571C21.6001 20.372 20.372 21.6 18.8572 21.6H6.51434C4.9995 21.6 3.77148 20.372 3.77148 18.8571V5.14286Z" fill="#4EB1E7"/>
<path d="M8.57148 2.4V21.6M17.4858 10.6286H12.6858M17.4858 6.51429H12.6858M6.51434 21.6H18.8572C20.372 21.6 21.6001 20.372 21.6001 18.8571V5.14286C21.6001 3.62802 20.372 2.4 18.8572 2.4H6.51434C4.9995 2.4 3.77148 3.62802 3.77148 5.14286V18.8571C3.77148 20.372 4.9995 21.6 6.51434 21.6Z" stroke="#4EB1E7" stroke-linecap="round"/>
<path d="M7.57129 1.40039V22.5003M16.4856 10.6287H11.6856M18 6.51437H11.6856" stroke="#242424" stroke-width="2" stroke-linecap="round"/>
</svg>
