<svg width="24" height="24" viewBox="0 0 24 24" fill="none" xmlns="http://www.w3.org/2000/svg">
<path d="M12.4287 14.5286C14.0619 14.5286 15.3858 13.2047 15.3858 11.5715C15.3858 9.93831 14.0619 8.61436 12.4287 8.61436C10.7955 8.61436 9.47153 9.93831 9.47153 11.5715C9.47153 13.2047 10.7955 14.5286 12.4287 14.5286Z" stroke="#AAAAAA" stroke-width="1.5" stroke-linecap="round" stroke-linejoin="round"/>
<path d="M19.0598 14.2598C18.9406 14.5301 18.905 14.8299 18.9577 15.1206C19.0104 15.4113 19.149 15.6795 19.3556 15.8907L19.4093 15.9445C19.576 16.1109 19.7082 16.3086 19.7983 16.5262C19.8885 16.7437 19.935 16.9769 19.935 17.2125C19.935 17.448 19.8885 17.6812 19.7983 17.8988C19.7082 18.1164 19.576 18.314 19.4093 18.4805C19.2429 18.6471 19.0452 18.7793 18.8276 18.8695C18.6101 18.9597 18.3769 19.0061 18.1413 19.0061C17.9058 19.0061 17.6726 18.9597 17.455 18.8695C17.2375 18.7793 17.0398 18.6471 16.8734 18.4805L16.8196 18.4267C16.6084 18.2201 16.3402 18.0815 16.0495 18.0288C15.7588 17.9761 15.459 18.0117 15.1887 18.131C14.9236 18.2446 14.6976 18.4332 14.5384 18.6736C14.3792 18.914 14.2937 19.1957 14.2926 19.4841V19.6364C14.2926 20.1118 14.1038 20.5676 13.7676 20.9037C13.4315 21.2398 12.9757 21.4286 12.5004 21.4286C12.025 21.4286 11.5692 21.2398 11.2331 20.9037C10.897 20.5676 10.7082 20.1118 10.7082 19.6364V19.5558C10.7012 19.2592 10.6052 18.9715 10.4326 18.7302C10.26 18.4889 10.0188 18.3051 9.74036 18.2027C9.47009 18.0834 9.17027 18.0478 8.87958 18.1005C8.58889 18.1532 8.32065 18.2918 8.10946 18.4984L8.05569 18.5521C7.88924 18.7188 7.69158 18.851 7.47401 18.9412C7.25644 19.0314 7.02323 19.0778 6.7877 19.0778C6.55218 19.0778 6.31896 19.0314 6.10139 18.9412C5.88382 18.851 5.68616 18.7188 5.51971 18.5521C5.35308 18.3857 5.22089 18.188 5.1307 17.9705C5.04051 17.7529 4.99408 17.5197 4.99408 17.2842C4.99408 17.0486 5.04051 16.8154 5.1307 16.5979C5.22089 16.3803 5.35308 16.1826 5.51971 16.0162L5.57348 15.9624C5.78007 15.7512 5.91865 15.483 5.97136 15.1923C6.02406 14.9016 5.98848 14.6018 5.8692 14.3315C5.7556 14.0665 5.56699 13.8404 5.32657 13.6812C5.08616 13.522 4.80443 13.4365 4.51608 13.4354H4.36374C3.88842 13.4354 3.43256 13.2466 3.09646 12.9105C2.76035 12.5744 2.57153 12.1185 2.57153 11.6432C2.57153 11.1679 2.76035 10.712 3.09646 10.3759C3.43256 10.0398 3.88842 9.85098 4.36374 9.85098H4.44439C4.741 9.84404 5.02865 9.74803 5.26997 9.57544C5.51129 9.40284 5.6951 9.16164 5.79751 8.88319C5.91679 8.61291 5.95237 8.31309 5.89967 8.0224C5.84696 7.73171 5.70838 7.46347 5.50179 7.25228L5.44803 7.19851C5.28139 7.03206 5.1492 6.8344 5.05901 6.61683C4.96882 6.39926 4.9224 6.16605 4.9224 5.93052C4.9224 5.695 4.96882 5.46179 5.05901 5.24422C5.1492 5.02665 5.28139 4.82899 5.44803 4.66254C5.61447 4.4959 5.81213 4.36371 6.02971 4.27352C6.24728 4.18333 6.48049 4.13691 6.71601 4.13691C6.95154 4.13691 7.18475 4.18333 7.40232 4.27352C7.61989 4.36371 7.81755 4.4959 7.984 4.66254L8.03777 4.7163C8.24896 4.92289 8.5172 5.06147 8.80789 5.11418C9.09858 5.16689 9.3984 5.1313 9.66868 5.01202H9.74036C10.0054 4.89842 10.2314 4.70981 10.3907 4.4694C10.5499 4.22898 10.6353 3.94726 10.6365 3.6589V3.50656C10.6365 3.03124 10.8253 2.57539 11.1614 2.23928C11.4975 1.90318 11.9534 1.71436 12.4287 1.71436C12.904 1.71436 13.3599 1.90318 13.696 2.23928C14.0321 2.57539 14.2209 3.03124 14.2209 3.50656V3.58721C14.222 3.87557 14.3075 4.15729 14.4667 4.39771C14.6259 4.63812 14.8519 4.82674 15.117 4.94033C15.3873 5.05961 15.6871 5.0952 15.9778 5.04249C16.2685 4.98978 16.5367 4.8512 16.7479 4.64462L16.8017 4.59085C16.9681 4.42422 17.1658 4.29202 17.3833 4.20183C17.6009 4.11164 17.8341 4.06522 18.0697 4.06522C18.3052 4.06522 18.5384 4.11164 18.756 4.20183C18.9735 4.29202 19.1712 4.42422 19.3376 4.59085C19.5043 4.7573 19.6365 4.95496 19.7267 5.17253C19.8168 5.3901 19.8633 5.62331 19.8633 5.85884C19.8633 6.09436 19.8168 6.32757 19.7267 6.54514C19.6365 6.76272 19.5043 6.96038 19.3376 7.12682L19.2839 7.18059C19.0773 7.39178 18.9387 7.66002 18.886 7.95071C18.8333 8.2414 18.8689 8.54122 18.9882 8.8115V8.88319C19.1017 9.14823 19.2904 9.37427 19.5308 9.53348C19.7712 9.6927 20.0529 9.77814 20.3413 9.77929H20.4936C20.9689 9.77929 21.4248 9.96811 21.7609 10.3042C22.097 10.6403 22.2858 11.0962 22.2858 11.5715C22.2858 12.0468 22.097 12.5027 21.7609 12.8388C21.4248 13.1749 20.9689 13.3637 20.4936 13.3637H20.413C20.1246 13.3649 19.8429 13.4503 19.6025 13.6095C19.3621 13.7687 19.1734 13.9948 19.0598 14.2598Z" stroke="#AAAAAA" stroke-width="1.5" stroke-linecap="round" stroke-linejoin="round"/>
</svg>
