<svg width="20" height="18" viewBox="0 0 20 18" fill="none" xmlns="http://www.w3.org/2000/svg">
<path id="Subtract" fill-rule="evenodd" clip-rule="evenodd" d="M9.25 2.41305C7.13095 0.93584 4.18953 0.263142 1.99433 0.0114375C0.896423 -0.114449 0 0.815847 0 1.96364V13.3941C0 14.5419 0.896423 15.4725 1.99433 15.5984C4.18953 15.8501 7.13095 16.5228 9.25 18V2.41305ZM10.75 18C12.869 16.5228 15.8105 15.8501 18.0057 15.5984C19.1036 15.4725 20 14.5419 20 13.3941V1.96364C20 0.815847 19.1036 -0.114449 18.0057 0.0114375C15.8105 0.263142 12.869 0.93584 10.75 2.41305V18ZM2.25882 5.21555C2.32221 4.8002 2.70543 4.51563 3.11477 4.57996C4.41754 4.78468 5.88469 5.12687 7.27049 5.67065C7.65682 5.82224 7.8489 6.26292 7.6995 6.65493C7.55011 7.04695 7.11581 7.24185 6.72948 7.09026C5.47083 6.59638 4.11398 6.27718 2.8852 6.08408C2.47587 6.01976 2.19543 5.6309 2.25882 5.21555ZM3.11477 8.63878C2.70543 8.57445 2.32221 8.85902 2.25882 9.27437C2.19543 9.68972 2.47587 10.0786 2.8852 10.1429C3.50444 10.2402 4.15812 10.3699 4.81651 10.5384C5.21814 10.6412 5.62587 10.3942 5.7272 9.98667C5.82853 9.57913 5.58509 9.16541 5.18346 9.06259C4.47445 8.88108 3.7745 8.74245 3.11477 8.63878Z" fill="#50CEBB"/>
</svg>
