<svg width="52" height="52" viewBox="0 0 52 52" fill="none" xmlns="http://www.w3.org/2000/svg">
<path fill-rule="evenodd" clip-rule="evenodd" d="M30 1.99994C31.6569 1.99994 33 3.34308 33 4.99994V12.2143H33.5H34V9.99994C34 8.34308 35.3431 6.99994 37 6.99994H38C39.6569 6.99994 41 8.34309 41 9.99994V12.2163C43.2794 12.2802 45.1772 13.8697 45.7087 15.9999H46C47.6569 15.9999 49 17.3431 49 18.9999V25.9999C49 27.6568 47.6569 28.9999 46 28.9999H45.8571V37.0714C45.8571 39.8329 43.6186 42.0714 40.8571 42.0714H30.0709V44.0001H34.2852C35.942 44.0001 37.2852 45.3432 37.2852 47.0001C37.2852 48.6569 35.942 50.0001 34.2852 50.0001H14.2852C12.6283 50.0001 11.2852 48.6569 11.2852 47.0001C11.2852 45.3432 12.6283 44.0001 14.2852 44.0001H18.7852V42.0714H8C5.23857 42.0714 3 39.8329 3 37.0714V17.2143C3 14.4529 5.23858 12.2143 8 12.2143H26V4.99994C26 3.34308 27.3431 1.99994 29 1.99994H30ZM41 14.2176V25.9999C41 27.6568 39.6569 28.9999 38 28.9999H37C35.3431 28.9999 34 27.6568 34 25.9999V14.2143H33.5H33V25.9999C33 27.6568 31.6569 28.9999 30 28.9999H29C27.3431 28.9999 26 27.6568 26 25.9999V14.2143H8C6.34315 14.2143 5 15.5574 5 17.2143V35.5001H43.8571V28.7746C42.7672 28.3251 42 27.2521 42 25.9999V18.9999C42 17.8041 42.6997 16.7717 43.712 16.2897C43.3362 15.1285 42.2716 14.2772 41 14.2176ZM31 4.99994C31 4.44765 30.5523 3.99994 30 3.99994H29C28.4477 3.99994 28 4.44765 28 4.99994V25.9999C28 26.5522 28.4477 26.9999 29 26.9999H30C30.5523 26.9999 31 26.5522 31 25.9999V4.99994ZM5.03039 37.5001H43.8268C43.6188 38.9539 42.3685 40.0714 40.8571 40.0714H8C6.48867 40.0714 5.23837 38.9539 5.03039 37.5001ZM20.7852 42.0715V43.7858H28.0709V42.0715H20.7852ZM14.2852 46.0001C13.7329 46.0001 13.2852 46.4478 13.2852 47.0001C13.2852 47.5523 13.7329 48.0001 14.2852 48.0001H34.2852C34.8374 48.0001 35.2852 47.5523 35.2852 47.0001C35.2852 46.4478 34.8374 46.0001 34.2852 46.0001H14.2852ZM46 17.9999C46.5523 17.9999 47 18.4477 47 18.9999V25.9999C47 26.5522 46.5523 26.9999 46 26.9999H45C44.4477 26.9999 44 26.5522 44 25.9999V18.9999C44 18.4477 44.4477 17.9999 45 17.9999H46ZM39 9.99994C39 9.44765 38.5523 8.99994 38 8.99994H37C36.4477 8.99994 36 9.44765 36 9.99994V25.9999C36 26.5522 36.4477 26.9999 37 26.9999H38C38.5523 26.9999 39 26.5522 39 25.9999V9.99994Z" fill="white"/>
</svg>
