<svg width="18" height="18" viewBox="0 0 18 18" fill="none" xmlns="http://www.w3.org/2000/svg">
<path fill-rule="evenodd" clip-rule="evenodd" d="M5 2C5.27614 2 5.5 2.22386 5.5 2.5V3.5H12.5V2.5C12.5 2.22386 12.7239 2 13 2C13.2761 2 13.5 2.22386 13.5 2.5V3.5H14C15.1046 3.5 16 4.39543 16 5.5V14.5C16 15.6046 15.1046 16.5 14 16.5H4C2.89543 16.5 2 15.6046 2 14.5V5.5C2 4.39543 2.89543 3.5 4 3.5H4.5V2.5C4.5 2.22386 4.72386 2 5 2ZM14 4.5H4C3.44772 4.5 3 4.94772 3 5.5V7H15V5.5C15 4.94772 14.5523 4.5 14 4.5ZM15 8H3V14.5C3 15.0523 3.44772 15.5 4 15.5H14C14.5523 15.5 15 15.0523 15 14.5V8ZM5 9.59747C4.72386 9.59747 4.5 9.82133 4.5 10.0975C4.5 10.3736 4.72386 10.5975 5 10.5975H9.66667C9.94281 10.5975 10.1667 10.3736 10.1667 10.0975C10.1667 9.82133 9.94281 9.59747 9.66667 9.59747H5ZM5 12C4.72386 12 4.5 12.2239 4.5 12.5C4.5 12.7761 4.72386 13 5 13H7.66667C7.94281 13 8.16667 12.7761 8.16667 12.5C8.16667 12.2239 7.94281 12 7.66667 12H5Z" fill="#222222"/>
</svg>
