<svg width="24" height="24" viewBox="0 0 24 24" fill="none" xmlns="http://www.w3.org/2000/svg">
<path d="M20.8065 8.5716V15.6002C20.8065 17.0403 20.8065 17.7604 20.4842 18.3104C20.2007 18.7943 19.7483 19.1877 19.1919 19.4342C18.5593 19.7145 17.7312 19.7145 16.0751 19.7145H8.7808C7.12465 19.7145 6.29657 19.7145 5.664 19.4342C5.10758 19.1877 4.65519 18.7943 4.37168 18.3104C4.04937 17.7604 4.04937 17.0403 4.04937 15.6002V8.5716M4.14794 4.28589H20.7079C21.26 4.28589 21.536 4.28589 21.7469 4.37931C21.9324 4.46149 22.0831 4.59262 22.1777 4.7539C22.2851 4.93725 22.2851 5.17727 22.2851 5.65732V7.20017C22.2851 7.68022 22.2851 7.92024 22.1777 8.10359C22.0831 8.26488 21.9324 8.396 21.7469 8.47818C21.536 8.5716 21.26 8.5716 20.7079 8.5716H4.14794C3.59589 8.5716 3.31987 8.5716 3.10901 8.47818C2.92354 8.396 2.77274 8.26488 2.67824 8.10359C2.5708 7.92024 2.5708 7.68022 2.5708 7.20017V5.65732C2.5708 5.17727 2.5708 4.93725 2.67824 4.7539C2.77274 4.59262 2.92354 4.46149 3.10901 4.37931C3.31987 4.28589 3.59589 4.28589 4.14794 4.28589ZM10.0622 11.5716H14.7937C15.3457 11.5716 15.6217 11.5716 15.8326 11.665C16.0181 11.7472 16.1689 11.8783 16.2634 12.0396C16.3708 12.223 16.3708 12.463 16.3708 12.943V13.6287C16.3708 14.1088 16.3708 14.3488 16.2634 14.5322C16.1689 14.6934 16.0181 14.8246 15.8326 14.9068C15.6217 15.0002 15.3457 15.0002 14.7937 15.0002H10.0622C9.51018 15.0002 9.23415 15.0002 9.0233 14.9068C8.83782 14.8246 8.68703 14.6934 8.59252 14.5322C8.48509 14.3488 8.48509 14.1088 8.48509 13.6287V12.943C8.48509 12.463 8.48509 12.223 8.59252 12.0396C8.68703 11.8783 8.83782 11.7472 9.0233 11.665C9.23415 11.5716 9.51018 11.5716 10.0622 11.5716Z" stroke="#AAAAAA" stroke-width="1.5" stroke-linecap="round" stroke-linejoin="round"/>
</svg>
