<svg width="49" height="48" viewBox="0 0 49 48" fill="none" xmlns="http://www.w3.org/2000/svg">
<path fill-rule="evenodd" clip-rule="evenodd" d="M34.3901 13.5483V23.6128C34.3901 27.9016 31.6142 31.5419 27.761 32.8352V34.4061C32.4548 33.0618 35.8901 28.7385 35.8901 23.6128V13.5483C35.8901 7.34847 30.8641 2.32251 24.6643 2.32251C18.4644 2.32251 13.4385 7.34848 13.4385 13.5483V23.6128C13.4385 28.5965 16.6861 32.8217 21.1804 34.2875V32.6961C17.5298 31.295 14.9385 27.7565 14.9385 23.6128V13.5483C14.9385 8.17691 19.2929 3.82251 24.6643 3.82251C30.0357 3.82251 34.3901 8.1769 34.3901 13.5483Z" fill="white"/>
<path d="M19.8984 40.8313L24.7448 45.6776L29.5911 40.8313" stroke="white" stroke-width="1.5" stroke-linecap="round" stroke-linejoin="round"/>
<path d="M24.7441 44.3593L24.7441 28.8754" stroke="white" stroke-width="1.5" stroke-linecap="round" stroke-linejoin="round"/>
<path d="M27.7653 12.5535C27.7653 14.221 26.4135 15.5728 24.7459 15.5728C23.0784 15.5728 21.7266 14.221 21.7266 12.5535C21.7266 10.8859 23.0784 9.53409 24.7459 9.53409C26.4135 9.53409 27.7653 10.8859 27.7653 12.5535Z" stroke="white" stroke-width="1.5"/>
</svg>
