<svg width="53" height="52" viewBox="0 0 53 52" fill="none" xmlns="http://www.w3.org/2000/svg">
<path d="M26.5 7.58329H16.3166C12.6763 7.58329 10.8561 7.58329 9.46569 8.29175C8.24263 8.91493 7.24826 9.9093 6.62508 11.1324C5.91663 12.5228 5.91663 14.3429 5.91663 17.9833V36.1833C5.91663 39.8236 5.91663 41.6438 6.62508 43.0342C7.24826 44.2573 8.24263 45.2517 9.46569 45.8748C10.8561 46.5833 12.6763 46.5833 16.3166 46.5833H36.25C38.2649 46.5833 39.2724 46.5833 40.0989 46.3618C42.342 45.7608 44.0941 44.0087 44.6951 41.7656C44.9166 40.939 44.9166 39.9316 44.9166 37.9166M40.5833 18.4166V5.41663M34.0833 11.9166H47.0833M22.1666 19.5C22.1666 21.8932 20.2265 23.8333 17.8333 23.8333C15.4401 23.8333 13.5 21.8932 13.5 19.5C13.5 17.1067 15.4401 15.1666 17.8333 15.1666C20.2265 15.1666 22.1666 17.1067 22.1666 19.5ZM31.895 26.9059L13.5674 43.5674C12.5366 44.5045 12.0211 44.9731 11.9756 45.379C11.936 45.7309 12.0709 46.0798 12.3369 46.3136C12.6436 46.5833 13.3402 46.5833 14.7334 46.5833H35.0712C38.1894 46.5833 39.7485 46.5833 40.9731 46.0594C42.5104 45.4018 43.7351 44.1771 44.3928 42.6398C44.9166 41.4152 44.9166 39.8561 44.9166 36.7379C44.9166 35.6887 44.9166 35.1642 44.8019 34.6756C44.6578 34.0617 44.3814 33.4866 43.992 32.9905C43.6822 32.5957 43.2725 32.268 42.4533 31.6126L36.3926 26.7641C35.5726 26.1081 35.1627 25.7801 34.7112 25.6644C34.3132 25.5623 33.8945 25.5756 33.5038 25.7025C33.0605 25.8464 32.672 26.1996 31.895 26.9059Z" stroke="#1F57F8" stroke-width="2" stroke-linecap="round" stroke-linejoin="round"/>
</svg>
