<svg width="32" height="32" viewBox="0 0 32 32" fill="none" xmlns="http://www.w3.org/2000/svg">
<path d="M8.32269 4.57275L4.57269 8.38228M27.4298 8.38228L23.6798 4.57275M8.50126 24.8902L6.00126 27.4299M23.5013 24.8902L26.0013 27.4299M12.2513 17.9061L14.7513 20.4458L20.3763 14.7315M16.0013 27.4299C18.6534 27.4299 21.197 26.3596 23.0723 24.4545C24.9477 22.5493 26.0013 19.9654 26.0013 17.2712C26.0013 14.5769 24.9477 11.993 23.0723 10.0879C21.197 8.18273 18.6534 7.11244 16.0013 7.11244C13.3491 7.11244 10.8056 8.18273 8.9302 10.0879C7.05483 11.993 6.00126 14.5769 6.00126 17.2712C6.00126 19.9654 7.05483 22.5493 8.9302 24.4545C10.8056 26.3596 13.3491 27.4299 16.0013 27.4299Z" stroke="#666666" stroke-width="2" stroke-linecap="round" stroke-linejoin="round"/>
</svg>
