<svg width="24" height="24" viewBox="0 0 24 24" fill="none" xmlns="http://www.w3.org/2000/svg">
<path d="M11.9999 15.4285V19.7142M17.1428 19.7142L13.7558 16.8918C13.1312 16.3712 12.8188 16.1109 12.4702 16.0115C12.1628 15.9238 11.837 15.9238 11.5296 16.0115C11.181 16.1109 10.8686 16.3712 10.244 16.8918L6.85704 19.7142M8.57132 11.1428V11.9999M11.9999 9.4285V11.9999M15.4285 7.71422V11.9999M20.5713 4.28564H3.42847M4.28561 4.28564H19.7142V11.3142C19.7142 12.7544 19.7142 13.4744 19.4339 14.0245C19.1874 14.5083 18.794 14.9017 18.3102 15.1482C17.7601 15.4285 17.04 15.4285 15.5999 15.4285H8.39989C6.95976 15.4285 6.23969 15.4285 5.68963 15.1482C5.20579 14.9017 4.81241 14.5083 4.56588 14.0245C4.28561 13.4744 4.28561 12.7544 4.28561 11.3142V4.28564Z" stroke="#AAAAAA" stroke-width="1.5" stroke-linecap="round" stroke-linejoin="round"/>
</svg>
