<svg width="56" height="56" viewBox="0 0 56 56" fill="none" xmlns="http://www.w3.org/2000/svg">
<path fill-rule="evenodd" clip-rule="evenodd" d="M31.5 7.0021V18L31.5 18.0689V18.0689C31.4998 18.4792 31.4996 18.9227 31.55 19.2971C31.609 19.7358 31.7606 20.2962 32.2322 20.7678C32.7038 21.2394 33.2642 21.391 33.7029 21.45C34.0773 21.5004 34.5208 21.5002 34.9311 21.5H34.9311L35 21.5H44.6V36.4C44.6 42.3397 44.6 45.3095 42.7548 47.1548C40.9095 49 37.9397 49 32 49H23.6C17.6603 49 14.6905 49 12.8452 47.1548C11 45.3095 11 42.3397 11 36.4V19.6C11 13.6603 11 10.6905 12.8452 8.84523C14.6905 7 17.6603 7 23.6 7H30.6206C30.9422 7 31.2336 7 31.5 7.0021ZM34.5 7.60042V18C34.5 18.1982 34.5001 18.3588 34.5023 18.4977C34.6412 18.4999 34.8018 18.5 35 18.5H44.5111C44.4638 18.1788 44.3913 17.9004 44.2803 17.6324C43.9606 16.8606 43.3536 16.2536 42.1397 15.0397L42.1397 15.0397L42.1397 15.0397L36.5603 9.4603C35.6347 8.53471 35.062 7.96199 34.5 7.60042ZM17.5 30C17.5 29.1716 18.1716 28.5 19 28.5H35.5C36.3284 28.5 37 29.1716 37 30C37 30.8284 36.3284 31.5 35.5 31.5H19C18.1716 31.5 17.5 30.8284 17.5 30ZM19 36.5C18.1716 36.5 17.5 37.1716 17.5 38C17.5 38.8284 18.1716 39.5 19 39.5H30C30.8284 39.5 31.5 38.8284 31.5 38C31.5 37.1716 30.8284 36.5 30 36.5H19Z" fill="#4EB1E7"/>
</svg>
