<svg width="20" height="21" viewBox="0 0 20 21" fill="none" xmlns="http://www.w3.org/2000/svg">
<path d="M11.7081 5.50033C12.5221 5.65913 13.2701 6.05721 13.8565 6.64361C14.4429 7.23 14.841 7.97805 14.9998 8.79199M11.7081 2.16699C13.3992 2.35486 14.9761 3.11214 16.18 4.3145C17.3839 5.51686 18.1431 7.09283 18.3331 8.78366M8.52228 12.0529C7.52097 11.0516 6.73031 9.91937 6.15031 8.71135C6.10042 8.60744 6.07548 8.55549 6.05631 8.48975C5.98821 8.25612 6.03713 7.96923 6.17881 7.77138C6.21867 7.7157 6.2663 7.66807 6.36156 7.57281C6.6529 7.28147 6.79857 7.1358 6.89381 6.98932C7.25297 6.43691 7.25297 5.72476 6.89381 5.17235C6.79857 5.02587 6.6529 4.8802 6.36156 4.58886L6.19917 4.42647C5.7563 3.9836 5.53487 3.76217 5.29705 3.64188C4.82408 3.40266 4.26553 3.40266 3.79256 3.64188C3.55474 3.76217 3.33331 3.9836 2.89044 4.42647L2.75908 4.55783C2.31773 4.99919 2.09705 5.21986 1.92851 5.51989C1.74149 5.85281 1.60703 6.36989 1.60816 6.75174C1.60918 7.09586 1.67594 7.33105 1.80944 7.80142C2.52692 10.3292 3.88065 12.7145 5.87063 14.7045C7.86061 16.6945 10.2459 18.0482 12.7737 18.7657C13.2441 18.8992 13.4793 18.966 13.8234 18.967C14.2053 18.9681 14.7224 18.8337 15.0553 18.6467C15.3553 18.4781 15.576 18.2574 16.0173 17.8161L16.1487 17.6847C16.5916 17.2419 16.813 17.0204 16.9333 16.7826C17.1725 16.3096 17.1725 15.7511 16.9333 15.2781C16.813 15.0403 16.5916 14.8189 16.1487 14.376L15.9863 14.2136C15.695 13.9223 15.5493 13.7766 15.4028 13.6814C14.8504 13.3222 14.1383 13.3222 13.5858 13.6814C13.4394 13.7766 13.2937 13.9223 13.0024 14.2136C12.9071 14.3089 12.8595 14.3565 12.8038 14.3964C12.6059 14.538 12.319 14.587 12.0854 14.5189C12.0197 14.4997 11.9677 14.4747 11.8638 14.4249C10.6558 13.8449 9.5236 13.0542 8.52228 12.0529Z" stroke="white" stroke-width="1.5" stroke-linecap="round" stroke-linejoin="round"/>
</svg>
