<svg width="56" height="56" viewBox="0 0 56 56" fill="none" xmlns="http://www.w3.org/2000/svg">
<path fill-rule="evenodd" clip-rule="evenodd" d="M50.749 25.376C50.749 18.7048 50.749 15.3692 48.7583 12.9731C47.8964 11.9358 46.789 11.0451 45.4992 10.352C42.5198 8.75098 38.3723 8.75098 30.0771 8.75098H24.1709C15.8758 8.75098 11.7282 8.75098 8.74885 10.352C7.45904 11.0451 6.35161 11.9358 5.48979 12.9731C3.49902 15.3692 3.49902 18.7048 3.49902 25.376C3.49902 32.0472 3.49902 35.3828 5.48979 37.7789C6.35161 38.8162 7.45904 39.7068 8.74885 40.3999C11.5897 41.9265 15.4927 41.9975 23.0406 42.0008L26.5213 48.9621C26.8898 49.6992 27.9416 49.6992 28.3101 48.9621L31.791 42.0004C38.9583 41.9928 42.7325 41.8867 45.4992 40.3999C46.789 39.7068 47.8964 38.8162 48.7583 37.7789C50.749 35.3828 50.749 32.0472 50.749 25.376ZM18.6668 28.0004C19.9555 28.0004 21.0002 26.9557 21.0002 25.6671C21.0002 24.3784 19.9555 23.3337 18.6668 23.3337C17.3782 23.3337 16.3335 24.3784 16.3335 25.6671C16.3335 26.9557 17.3782 28.0004 18.6668 28.0004ZM30.3335 25.6671C30.3335 26.9557 29.2888 28.0004 28.0002 28.0004C26.7115 28.0004 25.6668 26.9557 25.6668 25.6671C25.6668 24.3784 26.7115 23.3337 28.0002 23.3337C29.2888 23.3337 30.3335 24.3784 30.3335 25.6671ZM39.6668 25.6671C39.6668 26.9557 38.6222 28.0004 37.3335 28.0004C36.0448 28.0004 35.0002 26.9557 35.0002 25.6671C35.0002 24.3784 36.0448 23.3337 37.3335 23.3337C38.6222 23.3337 39.6668 24.3784 39.6668 25.6671Z" fill="#A464FE"/>
</svg>
